<svg width="18" height="19" viewBox="0 0 18 19" fill="none" xmlns="http://www.w3.org/2000/svg">
<path d="M2.25 14.75H0.75V14C0.75 12.6021 1.70608 11.4275 3 11.0945M4.5 8.62198C3.62611 8.3131 3 7.47967 3 6.50001C3 5.52034 3.62611 4.68691 4.5 4.37804M15.75 14.75H17.25V14C17.25 12.6021 16.2939 11.4275 15 11.0945M13.5 4.37804C14.3739 4.68691 15 5.52034 15 6.50001C15 7.47967 14.3739 8.3131 13.5 8.62198M7.5 11H10.5C12.1569 11 13.5 12.3431 13.5 14V14.75H4.5V14C4.5 12.3431 5.84315 11 7.5 11ZM11.25 6.5C11.25 7.74264 10.2426 8.75 9 8.75C7.75736 8.75 6.75 7.74264 6.75 6.5C6.75 5.25736 7.75736 4.25 9 4.25C10.2426 4.25 11.25 5.25736 11.25 6.5Z" stroke="#8976FD" stroke-linecap="round" stroke-linejoin="round"/>
</svg>
